<svg fill="none" height="100%" width="100%" viewBox="0 0 512 512" xmlns:xlink="http://www.w3.org/1999/xlink" xmlns="http://www.w3.org/2000/svg"><defs><clipPath id="i0"><rect height="512" width="512" y="0" x="0" /></clipPath><clipPath id="i1"><rect height="500" width="500" y="0" x="0" /></clipPath><g id="i2"><g id="i3"><g transform="translate(128,196)"><g transform="rotate(0)"><animateTransform repeatCount="indefinite" type="rotate" attributeName="transform" dur="4s" begin="0s" calcMode="spline" values="0; 0; -14; 0; 0" keyTimes="0; 0.5; 0.533333; 0.6; 1" keySplines="0.42 0 1 1; 0.16 1 0.3 1; 0.22 1 0.36 1; 0 0 1 1" fill="freeze" /><ellipse ry="38" rx="38" cy="0" cx="0" fill="#e9d8b4" /></g></g></g><g transform="matrix(1,0,0,1,384,196)" id="i4"><ellipse ry="38" rx="38" cy="0" cx="0" fill="#e9d8b4" /></g><g transform="matrix(1,0,0,1,256,275)" id="i5"><ellipse ry="130" rx="160" cy="0" cx="0" fill="#e9d8b4" /></g><g transform="matrix(1,0,0,1,256,258)" id="i6"><ellipse ry="48" rx="120" cy="0" cx="0" fill="#b08a5c" /></g><g transform="matrix(1,0,0,1,256,340)" id="i7"><ellipse ry="45" rx="65" cy="0" cx="0" fill="#f0efe8" /></g><g id="i8"><g transform="translate(200,258)"><g transform="scale(1,1)"><animateTransform repeatCount="indefinite" type="scale" attributeName="transform" dur="4s" begin="0s" calcMode="spline" values="1 1; 1 1; 1 0.1; 1 1; 1 1" keyTimes="0; 0.8; 0.833333; 0.875; 1" keySplines="0.42 0 1 1; 0.42 0 1 1; 0.22 1 0.36 1; 0 0 1 1" fill="freeze" /><ellipse ry="24" rx="21" cy="0" cx="0" fill="#0c0c0b" /></g></g></g><g id="i9"><g transform="translate(312,258)"><g transform="scale(1,1)"><animateTransform repeatCount="indefinite" type="scale" attributeName="transform" dur="4s" begin="0s" calcMode="spline" values="1 1; 1 1; 1 0.1; 1 1; 1 1" keyTimes="0; 0.8; 0.833333; 0.875; 1" keySplines="0.42 0 1 1; 0.42 0 1 1; 0.22 1 0.36 1; 0 0 1 1" fill="freeze" /><ellipse ry="24" rx="21" cy="0" cx="0" fill="#0c0c0b" /></g></g></g><g id="i10"><animate repeatCount="indefinite" attributeName="opacity" dur="4s" begin="0s" fill="freeze" values="1; 1; 0; 1; 1" keyTimes="0; 0.808333; 0.833333; 0.866667; 1" keySplines="0.42 0 1 1; 0.42 0 1 1; 0.22 1 0.36 1; 0 0 1 1" calcMode="spline" /><g transform="translate(206,248)"><ellipse ry="7" rx="7" cy="0" cx="0" fill="#f0efe8" /></g></g><g id="i11"><animate repeatCount="indefinite" attributeName="opacity" dur="4s" begin="0s" fill="freeze" values="1; 1; 0; 1; 1" keyTimes="0; 0.808333; 0.833333; 0.866667; 1" keySplines="0.42 0 1 1; 0.42 0 1 1; 0.22 1 0.36 1; 0 0 1 1" calcMode="spline" /><g transform="translate(318,248)"><ellipse ry="7" rx="7" cy="0" cx="0" fill="#f0efe8" /></g></g><g transform="matrix(1,0,0,1,256,318)" id="i12"><ellipse ry="12" rx="17" cy="0" cx="0" fill="#0c0c0b" /></g><g transform="matrix(1,0,0,1,200,258)" id="i13"><ellipse ry="39" rx="39" cy="0" cx="0" stroke-linejoin="round" stroke-linecap="round" stroke-width="8" stroke="#a3e635" /></g><g transform="matrix(1,0,0,1,312,258)" id="i14"><ellipse ry="39" rx="39" cy="0" cx="0" stroke-linejoin="round" stroke-linecap="round" stroke-width="8" stroke="#a3e635" /></g><g transform="matrix(1,0,0,1,256,256)" id="i15"><rect height="8" width="36" y="-4" x="-18" fill="#a3e635" /></g></g><g id="i16"><g transform="matrix(1,0,0,1,256,360)" id="i17"><ellipse ry="85" rx="105" cy="0" cx="0" fill="#e9d8b4" /></g><g transform="matrix(0.985,0.174,-0.174,0.985,385,215)" id="i18"><rect ry="6" rx="6" height="104" width="80" y="-52" x="-40" stroke-linejoin="round" stroke-linecap="round" stroke-width="4" stroke="#888883" fill="#f0efe8" /></g><g transform="matrix(1,0,0,1,372,278)" id="i19"><ellipse ry="20" rx="22" cy="0" cx="0" fill="#b08a5c" /></g><g transform="matrix(0.985,0.174,-0.174,0.985,385,212)" id="i20"><rect height="6" width="40" y="-3" x="-20" fill="#a3e635" /></g><g transform="matrix(0.55,0,0,0.55,115.2,63.75)" id="i21"><g clip-path="url(#i1)"><g><g transform="translate(128,196)"><g transform="rotate(0)"><animateTransform repeatCount="indefinite" type="rotate" attributeName="transform" dur="4s" begin="0s" calcMode="spline" values="0; 0; -14; 0; 0" keyTimes="0; 0.5; 0.533333; 0.6; 1" keySplines="0.42 0 1 1; 0.16 1 0.3 1; 0.22 1 0.36 1; 0 0 1 1" fill="freeze" /><ellipse ry="38" rx="38" cy="0" cx="0" fill="#e9d8b4" /></g></g></g><g transform="matrix(1,0,0,1,384,196)"><ellipse ry="38" rx="38" cy="0" cx="0" fill="#e9d8b4" /></g><g transform="matrix(1,0,0,1,256,275)"><ellipse ry="130" rx="160" cy="0" cx="0" fill="#e9d8b4" /></g><g transform="matrix(1,0,0,1,256,258)"><ellipse ry="48" rx="120" cy="0" cx="0" fill="#b08a5c" /></g><g transform="matrix(1,0,0,1,256,340)"><ellipse ry="45" rx="65" cy="0" cx="0" fill="#f0efe8" /></g><g><g transform="translate(200,258)"><g transform="scale(1,1)"><animateTransform repeatCount="indefinite" type="scale" attributeName="transform" dur="4s" begin="0s" calcMode="spline" values="1 1; 1 1; 1 0.1; 1 1; 1 1" keyTimes="0; 0.8; 0.833333; 0.875; 1" keySplines="0.42 0 1 1; 0.42 0 1 1; 0.22 1 0.36 1; 0 0 1 1" fill="freeze" /><ellipse ry="24" rx="21" cy="0" cx="0" fill="#0c0c0b" /></g></g></g><g><g transform="translate(312,258)"><g transform="scale(1,1)"><animateTransform repeatCount="indefinite" type="scale" attributeName="transform" dur="4s" begin="0s" calcMode="spline" values="1 1; 1 1; 1 0.1; 1 1; 1 1" keyTimes="0; 0.8; 0.833333; 0.875; 1" keySplines="0.42 0 1 1; 0.42 0 1 1; 0.22 1 0.36 1; 0 0 1 1" fill="freeze" /><ellipse ry="24" rx="21" cy="0" cx="0" fill="#0c0c0b" /></g></g></g><g><animate repeatCount="indefinite" attributeName="opacity" dur="4s" begin="0s" fill="freeze" values="1; 1; 0; 1; 1" keyTimes="0; 0.808333; 0.833333; 0.866667; 1" keySplines="0.42 0 1 1; 0.42 0 1 1; 0.22 1 0.36 1; 0 0 1 1" calcMode="spline" /><g transform="translate(206,248)"><ellipse ry="7" rx="7" cy="0" cx="0" fill="#f0efe8" /></g></g><g><animate repeatCount="indefinite" attributeName="opacity" dur="4s" begin="0s" fill="freeze" values="1; 1; 0; 1; 1" keyTimes="0; 0.808333; 0.833333; 0.866667; 1" keySplines="0.42 0 1 1; 0.42 0 1 1; 0.22 1 0.36 1; 0 0 1 1" calcMode="spline" /><g transform="translate(318,248)"><ellipse ry="7" rx="7" cy="0" cx="0" fill="#f0efe8" /></g></g><g transform="matrix(1,0,0,1,256,318)"><ellipse ry="12" rx="17" cy="0" cx="0" fill="#0c0c0b" /></g><g transform="matrix(1,0,0,1,200,258)"><ellipse ry="39" rx="39" cy="0" cx="0" stroke-linejoin="round" stroke-linecap="round" stroke-width="8" stroke="#a3e635" /></g><g transform="matrix(1,0,0,1,312,258)"><ellipse ry="39" rx="39" cy="0" cx="0" stroke-linejoin="round" stroke-linecap="round" stroke-width="8" stroke="#a3e635" /></g><g transform="matrix(1,0,0,1,256,256)"><rect height="8" width="36" y="-4" x="-18" fill="#a3e635" /></g></g></g></g></defs><g id="i22"><g transform="translate(250,250)"><animateTransform repeatCount="indefinite" type="translate" attributeName="transform" dur="4s" begin="0s" calcMode="spline" values="250 250; 250 250.156; 250 250.561; 250 251.152; 250 251.892; 250 252.757; 250 253.731; 250 254.809; 250 256; 250 235.442; 250 220.148; 250 210.108; 250 203.997; 250 200.398; 250 198.317; 250 197.141; 250 196.505; 250 196.186; 250 196.049; 250 196.005; 250 196; 250 196.649; 250 198.403; 250 201.047; 250 204.433; 250 208.453; 250 213.029; 250 218.102; 250 223.629; 250 229.581; 250 235.942; 250 242.72; 250 250; 250 250; 250 250; 250 250; 250 250; 250 250; 250 250; 250 250; 250 250; 250 250; 250 250; 250 250; 250 250; 250 250; 250 250; 250 250; 250 250; 250 250; 250 250; 250 250; 250 250; 250 250; 250 250; 250 250; 250 250; 250 250; 250 250; 250 250; 250 250; 250 250; 250 250; 250 250; 250 250; 250 250; 250 250; 250 250; 250 250; 250 250; 250 250; 250 252.891; 250 254.589; 250 255.404; 250 255.768; 250 255.923; 250 255.981; 250 255.998; 250 256; 250 241.609; 250 230.904; 250 223.876; 250 219.598; 250 217.079; 250 215.622; 250 214.799; 250 214.353; 250 214.13; 250 214.034; 250 214.004; 250 214; 250 214.433; 250 215.602; 250 217.365; 250 219.622; 250 222.302; 250 225.353; 250 228.735; 250 232.419; 250 236.387; 250 240.628; 250 245.147; 250 250; 250 250" keyTimes="0; 0.008333; 0.016667; 0.025; 0.033334; 0.041667; 0.05; 0.058333; 0.066666; 0.075; 0.083333; 0.091667; 0.1; 0.108333; 0.116667; 0.125; 0.133334; 0.141667; 0.15; 0.158334; 0.166666; 0.175; 0.183333; 0.191666; 0.2; 0.208333; 0.216667; 0.225; 0.233333; 0.241667; 0.25; 0.258334; 0.266666; 0.275; 0.283333; 0.291666; 0.3; 0.308333; 0.316667; 0.325; 0.333333; 0.341667; 0.35; 0.358334; 0.366667; 0.375; 0.383333; 0.391666; 0.4; 0.408333; 0.416667; 0.425; 0.433333; 0.441667; 0.45; 0.458334; 0.466667; 0.475; 0.483333; 0.491666; 0.5; 0.508333; 0.516667; 0.525; 0.533333; 0.541667; 0.55; 0.558334; 0.566667; 0.575; 0.583334; 0.591666; 0.6; 0.608333; 0.616667; 0.625; 0.633333; 0.641667; 0.65; 0.658334; 0.666667; 0.675; 0.683334; 0.691666; 0.7; 0.708333; 0.716666; 0.725; 0.733333; 0.741667; 0.75; 0.758333; 0.766667; 0.775; 0.783334; 0.791667; 0.8; 0.808333; 0.816666; 0.825; 0.833333; 0.841667; 0.85; 1" keySplines="0 0 1 1; 0 0 1 1; 0 0 1 1; 0 0 1 1; 0 0 1 1; 0 0 1 1; 0 0 1 1; 0 0 1 1; 0 0 1 1; 0 0 1 1; 0 0 1 1; 0 0 1 1; 0 0 1 1; 0 0 1 1; 0 0 1 1; 0 0 1 1; 0 0 1 1; 0 0 1 1; 0 0 1 1; 0 0 1 1; 0 0 1 1; 0 0 1 1; 0 0 1 1; 0 0 1 1; 0 0 1 1; 0 0 1 1; 0 0 1 1; 0 0 1 1; 0 0 1 1; 0 0 1 1; 0 0 1 1; 0 0 1 1; 0 0 1 1; 0 0 1 1; 0 0 1 1; 0 0 1 1; 0 0 1 1; 0 0 1 1; 0 0 1 1; 0 0 1 1; 0 0 1 1; 0 0 1 1; 0 0 1 1; 0 0 1 1; 0 0 1 1; 0 0 1 1; 0 0 1 1; 0 0 1 1; 0 0 1 1; 0 0 1 1; 0 0 1 1; 0 0 1 1; 0 0 1 1; 0 0 1 1; 0 0 1 1; 0 0 1 1; 0 0 1 1; 0 0 1 1; 0 0 1 1; 0 0 1 1; 0 0 1 1; 0 0 1 1; 0 0 1 1; 0 0 1 1; 0 0 1 1; 0 0 1 1; 0 0 1 1; 0 0 1 1; 0 0 1 1; 0 0 1 1; 0 0 1 1; 0 0 1 1; 0 0 1 1; 0 0 1 1; 0 0 1 1; 0 0 1 1; 0 0 1 1; 0 0 1 1; 0 0 1 1; 0 0 1 1; 0 0 1 1; 0 0 1 1; 0 0 1 1; 0 0 1 1; 0 0 1 1; 0 0 1 1; 0 0 1 1; 0 0 1 1; 0 0 1 1; 0 0 1 1; 0 0 1 1; 0 0 1 1; 0 0 1 1; 0 0 1 1; 0 0 1 1; 0 0 1 1; 0 0 1 1; 0 0 1 1; 0 0 1 1; 0 0 1 1; 0 0 1 1; 0 0 1 1; 0 0 1 1" fill="freeze" /><g transform="scale(1,1)"><animateTransform repeatCount="indefinite" type="scale" attributeName="transform" dur="4s" begin="0s" calcMode="spline" values="1 1; 1.04 0.94; 0.96 1.05; 1.05 0.93; 1 1; 1.04 0.94; 0.97 1.04; 1.04 0.94; 1 1; 1 1" keyTimes="0; 0.066667; 0.166666; 0.266666; 0.35; 0.65; 0.75; 0.85; 0.933333; 1" keySplines="0.42 0 1 1; 0.22 1 0.36 1; 0.42 0 1 1; 0.22 1 0.36 1; 0.22 1 0.36 1; 0.22 1 0.36 1; 0.42 0 1 1; 0.22 1 0.36 1; 0 0 1 1" fill="freeze" /><g transform="translate(-250,-250)"><g clip-path="url(#i0)"><g transform="matrix(1,0,0,1,256,360)"><ellipse ry="85" rx="105" cy="0" cx="0" fill="#e9d8b4" /></g><g transform="matrix(0.985,0.174,-0.174,0.985,385,215)"><rect ry="6" rx="6" height="104" width="80" y="-52" x="-40" stroke-linejoin="round" stroke-linecap="round" stroke-width="4" stroke="#888883" fill="#f0efe8" /></g><g transform="matrix(1,0,0,1,372,278)"><ellipse ry="20" rx="22" cy="0" cx="0" fill="#b08a5c" /></g><g transform="matrix(0.985,0.174,-0.174,0.985,385,212)"><rect height="6" width="40" y="-3" x="-20" fill="#a3e635" /></g><g transform="matrix(0.55,0,0,0.55,115.2,63.75)"><g clip-path="url(#i1)"><g><g transform="translate(128,196)"><g transform="rotate(0)"><animateTransform repeatCount="indefinite" type="rotate" attributeName="transform" dur="4s" begin="0s" calcMode="spline" values="0; 0; -14; 0; 0" keyTimes="0; 0.5; 0.533333; 0.6; 1" keySplines="0.42 0 1 1; 0.16 1 0.3 1; 0.22 1 0.36 1; 0 0 1 1" fill="freeze" /><ellipse ry="38" rx="38" cy="0" cx="0" fill="#e9d8b4" /></g></g></g><g transform="matrix(1,0,0,1,384,196)"><ellipse ry="38" rx="38" cy="0" cx="0" fill="#e9d8b4" /></g><g transform="matrix(1,0,0,1,256,275)"><ellipse ry="130" rx="160" cy="0" cx="0" fill="#e9d8b4" /></g><g transform="matrix(1,0,0,1,256,258)"><ellipse ry="48" rx="120" cy="0" cx="0" fill="#b08a5c" /></g><g transform="matrix(1,0,0,1,256,340)"><ellipse ry="45" rx="65" cy="0" cx="0" fill="#f0efe8" /></g><g><g transform="translate(200,258)"><g transform="scale(1,1)"><animateTransform repeatCount="indefinite" type="scale" attributeName="transform" dur="4s" begin="0s" calcMode="spline" values="1 1; 1 1; 1 0.1; 1 1; 1 1" keyTimes="0; 0.8; 0.833333; 0.875; 1" keySplines="0.42 0 1 1; 0.42 0 1 1; 0.22 1 0.36 1; 0 0 1 1" fill="freeze" /><ellipse ry="24" rx="21" cy="0" cx="0" fill="#0c0c0b" /></g></g></g><g><g transform="translate(312,258)"><g transform="scale(1,1)"><animateTransform repeatCount="indefinite" type="scale" attributeName="transform" dur="4s" begin="0s" calcMode="spline" values="1 1; 1 1; 1 0.1; 1 1; 1 1" keyTimes="0; 0.8; 0.833333; 0.875; 1" keySplines="0.42 0 1 1; 0.42 0 1 1; 0.22 1 0.36 1; 0 0 1 1" fill="freeze" /><ellipse ry="24" rx="21" cy="0" cx="0" fill="#0c0c0b" /></g></g></g><g><animate repeatCount="indefinite" attributeName="opacity" dur="4s" begin="0s" fill="freeze" values="1; 1; 0; 1; 1" keyTimes="0; 0.808333; 0.833333; 0.866667; 1" keySplines="0.42 0 1 1; 0.42 0 1 1; 0.22 1 0.36 1; 0 0 1 1" calcMode="spline" /><g transform="translate(206,248)"><ellipse ry="7" rx="7" cy="0" cx="0" fill="#f0efe8" /></g></g><g><animate repeatCount="indefinite" attributeName="opacity" dur="4s" begin="0s" fill="freeze" values="1; 1; 0; 1; 1" keyTimes="0; 0.808333; 0.833333; 0.866667; 1" keySplines="0.42 0 1 1; 0.42 0 1 1; 0.22 1 0.36 1; 0 0 1 1" calcMode="spline" /><g transform="translate(318,248)"><ellipse ry="7" rx="7" cy="0" cx="0" fill="#f0efe8" /></g></g><g transform="matrix(1,0,0,1,256,318)"><ellipse ry="12" rx="17" cy="0" cx="0" fill="#0c0c0b" /></g><g transform="matrix(1,0,0,1,200,258)"><ellipse ry="39" rx="39" cy="0" cx="0" stroke-linejoin="round" stroke-linecap="round" stroke-width="8" stroke="#a3e635" /></g><g transform="matrix(1,0,0,1,312,258)"><ellipse ry="39" rx="39" cy="0" cx="0" stroke-linejoin="round" stroke-linecap="round" stroke-width="8" stroke="#a3e635" /></g><g transform="matrix(1,0,0,1,256,256)"><rect height="8" width="36" y="-4" x="-18" fill="#a3e635" /></g></g></g></g></g></g></g></g></svg>